<?xml version="1.0" encoding="iso-8859-1"?>
<!-- Uploaded to: SVG Repo, www.svgrepo.com, Generator: SVG Repo Mixer Tools -->
<svg fill="#000000" height="800px" width="800px" version="1.1" id="Layer_1" xmlns="http://www.w3.org/2000/svg" xmlns:xlink="http://www.w3.org/1999/xlink" 
	 viewBox="0 0 512.004 512.004" xml:space="preserve">
<g>
	<g>
		<g>
			<polygon points="170.669,512.004 341.335,512.004 256.002,351.194 			"/>
			<path d="M490.669,469.338h-29.483L279.853,106.671l37.909-75.797c5.269-10.539,0.981-23.339-9.557-28.629
				c-10.539-5.248-23.317-0.981-28.629,9.557L256.002,58.97l-23.573-47.168c-5.291-10.539-18.091-14.805-28.629-9.557
				c-10.539,5.291-14.827,18.091-9.557,28.629l37.909,75.797L50.818,469.338H21.335c-11.797,0-21.333,9.557-21.333,21.333
				s9.536,21.333,21.333,21.333h103.381L236.503,290.01c3.435-7.701,11.051-12.672,19.499-12.672
				c8.448,0,16.064,4.971,19.499,12.672l111.787,221.995h103.381c11.797,0,21.333-9.557,21.333-21.333
				S502.466,469.338,490.669,469.338z"/>
		</g>
	</g>
</g>
</svg>